<svg width="33" height="33" viewBox="0 0 33 33" fill="none" xmlns="http://www.w3.org/2000/svg">
<path d="M19.8327 29.3243C19.5606 29.3905 19.2832 29.4492 19.0078 29.4987C18.288 29.6293 17.812 30.3048 17.9452 31.0077C18.0109 31.3535 18.2123 31.6416 18.4856 31.8296C18.7673 32.0231 19.1258 32.1104 19.4911 32.0441C19.819 31.9847 20.1495 31.9149 20.4739 31.8359C21.1847 31.6633 21.6178 30.9607 21.4404 30.2675C21.2635 29.5737 20.544 29.1516 19.8327 29.3243Z" fill="white"/>
<path d="M29.6443 11.9761C29.7372 12.2494 29.9146 12.4724 30.1387 12.6265C30.471 12.8549 30.9058 12.9317 31.3207 12.7978C32.0163 12.5725 32.3932 11.8407 32.1631 11.1624C32.0582 10.8532 31.9419 10.543 31.8179 10.241C31.5458 9.57728 30.7742 9.25415 30.0935 9.51963C29.4136 9.78497 29.0822 10.538 29.3546 11.2019C29.4587 11.4558 29.5562 11.7163 29.6443 11.9761Z" fill="white"/>
<path d="M24.145 27.4759C23.911 27.6266 23.6695 27.7725 23.4261 27.9092C22.7913 28.2664 22.5739 29.0581 22.9399 29.6772C23.0393 29.8455 23.1717 29.9832 23.3241 30.0884C23.7334 30.3693 24.2892 30.4114 24.7519 30.1513C25.0412 29.9885 25.3288 29.8154 25.6075 29.6356C26.2186 29.2417 26.3868 28.4387 25.9829 27.8423C25.579 27.2456 24.7563 27.0818 24.145 27.4759Z" fill="white"/>
<path d="M32.9876 15.5906C32.9587 14.8763 32.342 14.3203 31.6096 14.3482C30.8781 14.3763 30.3078 14.9782 30.3365 15.6923C30.3475 15.9653 30.3503 16.2424 30.3439 16.5152C30.3336 16.9632 30.5582 17.3625 30.9072 17.6025C31.1151 17.7453 31.3674 17.8318 31.641 17.8379C32.3732 17.8537 32.98 17.2871 32.9963 16.5724C33.0036 16.2465 33.0008 15.9163 32.9876 15.5906Z" fill="white"/>
<path d="M29.4273 24.0723C28.8401 23.6426 28.0095 23.7592 27.5697 24.331C27.4013 24.55 27.224 24.7663 27.0424 24.9745C26.5678 25.5185 26.6348 26.3356 27.1924 26.7989C27.2242 26.8252 27.2563 26.8493 27.2897 26.872C27.844 27.2533 28.6143 27.1657 29.0625 26.6526C29.2794 26.4041 29.4908 26.1458 29.692 25.8843C30.1318 25.3125 30.0128 24.5015 29.4273 24.0723Z" fill="white"/>
<path d="M31.3765 19.3931C30.6774 19.1793 29.933 19.5589 29.7139 20.241C29.6301 20.5015 29.5371 20.7633 29.4368 21.0198C29.2166 21.5842 29.4276 22.2053 29.9114 22.5381C30.0001 22.5989 30.0979 22.6505 30.2041 22.6897C30.8885 22.9445 31.655 22.6095 31.9159 21.9414C32.035 21.6365 32.1456 21.325 32.2455 21.0153C32.4644 20.3331 32.0755 19.607 31.3765 19.3931Z" fill="white"/>
<path d="M14.0455 29.5104C12.8594 29.3027 11.7216 28.9489 10.6428 28.4554C10.63 28.4489 10.6186 28.4415 10.6052 28.4356C10.3509 28.3188 10.0971 28.1938 9.85109 28.0631C9.85024 28.0621 9.84868 28.0615 9.84733 28.0609C9.39596 27.8184 8.95544 27.5501 8.52748 27.2562C2.28699 22.9674 0.786525 14.525 5.18279 8.4368C6.13874 7.11342 7.29558 6.00936 8.58529 5.13431C8.60118 5.12351 8.61707 5.11278 8.63282 5.10192C13.1776 2.04684 19.3486 1.84095 24.1744 4.98032L23.1379 6.44135C22.8498 6.84801 23.027 7.14436 23.5315 7.10006L28.0336 6.70683C28.5387 6.66254 28.8408 6.23629 28.7049 5.76042L27.4959 1.51069C27.3606 1.03427 27.0141 0.977247 26.7256 1.38384L25.6868 2.84833C22.1453 0.528993 17.8976 -0.355404 13.6816 0.357844C13.257 0.429542 12.8383 0.517297 12.4254 0.619447C12.4222 0.62 12.4197 0.620346 12.4171 0.6209C12.4011 0.624706 12.385 0.629758 12.3694 0.63398C8.7339 1.54481 5.56195 3.61348 3.29855 6.56502C3.27947 6.5871 3.25982 6.60869 3.2418 6.63271C3.16654 6.73161 3.09184 6.83279 3.01871 6.93397C2.89911 7.09979 2.78121 7.26976 2.66842 7.43973C2.6543 7.46022 2.64352 7.48105 2.63118 7.50174C0.763399 10.3255 -0.137503 13.59 0.016998 16.9134C0.0173527 16.9244 0.0167143 16.9354 0.016998 16.9466C0.0319658 17.2712 0.0583544 17.6004 0.0941777 17.9244C0.096093 17.9453 0.100846 17.9651 0.104464 17.986C0.141493 18.3118 0.187957 18.6384 0.246196 18.9649C0.838096 22.2964 2.44894 25.2943 4.86272 27.6269C4.86832 27.6323 4.87414 27.6383 4.87981 27.644C4.8818 27.6461 4.884 27.6472 4.88591 27.6492C5.53442 28.2733 6.23982 28.8505 6.99935 29.3723C8.98701 30.7388 11.2003 31.642 13.5773 32.0581C14.2985 32.1846 14.9874 31.7162 15.1168 31.0129C15.2462 30.3091 14.7665 29.6364 14.0455 29.5104Z" fill="white"/>
<path d="M15.6866 5.75781C15.0933 5.75781 14.6128 6.22704 14.6128 6.80498V17.2377L24.3929 22.1702C24.5503 22.2497 24.7189 22.2872 24.8847 22.2872C25.2732 22.2872 25.6484 22.0808 25.8391 21.7207C26.1112 21.2068 25.9053 20.5754 25.3785 20.31L16.7591 15.9625V6.80498C16.7591 6.22704 16.2791 5.75781 15.6866 5.75781Z" fill="white"/>
</svg>
