<svg width="27" height="27" viewBox="0 0 27 27" fill="none" xmlns="http://www.w3.org/2000/svg">
<g clip-path="url(#clip0_36_501)">
<path d="M21.8587 26.0392C20.5457 26.672 18.9637 26.9831 17.1761 26.9989H17.097C12.4937 26.9989 8.22234 25.0425 5.09014 21.9103C1.89455 18.6832 -0.0618413 14.3012 0.00149252 9.68195C0.0173128 7.94178 0.328445 6.40731 0.945436 5.12598L3.39742 5.33164L7.28895 9.23899L7.58953 11.7701L6.79857 12.3554C6.60873 12.5927 6.57714 13.0831 6.89349 13.3995L10.2472 16.7532L13.6011 20.1069C13.9016 20.4075 14.4236 20.4075 14.7242 20.1069L15.2304 19.4109L17.7773 19.7115L21.6689 23.6031L21.8587 26.0392Z" fill="#F23051"/>
<path d="M21.8589 26.0399C20.5458 26.6727 18.9639 26.9839 17.1763 26.9997H17.0972C12.4939 26.9997 8.22254 25.0433 5.09033 21.9111L10.2474 16.7539L13.6012 20.1076C13.9017 20.4082 14.4238 20.4082 14.7244 20.1076L15.2306 19.4116L17.7775 19.7122L21.6691 23.6038L21.8589 26.0399Z" fill="#D92C48"/>
<path d="M9.6536 6.84673L5.79994 2.99307C4.86839 2.06231 3.37917 2.11172 2.33171 3.10428C2.03519 3.38615 1.34505 4.2965 0.945801 5.12174L7.59227 11.7682C8.43402 11.142 8.67744 10.9609 9.3933 10.4284C10.5516 9.56624 10.6789 7.87194 9.6536 6.84673Z" fill="#D82B48"/>
<path d="M24.0155 21.2088L20.5334 17.7267C19.1051 16.2984 17.4263 16.4624 16.5716 17.6086L15.2368 19.413L21.8631 26.0393C22.3716 25.7966 23.7017 24.8681 23.8889 24.6771C24.9031 23.642 24.9571 22.1504 24.0155 21.2088Z" fill="#C02740"/>
<path d="M17.5085 13.447C17.5085 13.8899 17.1605 14.238 16.7175 14.238C16.2745 14.238 15.9265 13.8899 15.9265 13.447C15.9265 12.7825 15.6576 12.1972 15.2305 11.7701C14.8033 11.3429 14.2181 11.0741 13.5537 11.0741C13.1106 11.0741 12.7627 10.726 12.7627 10.2831C12.7627 9.84013 13.1107 9.49219 13.5537 9.49219C14.6452 9.49219 15.6418 9.9351 16.3537 10.647C17.0655 11.3588 17.5085 12.3554 17.5085 13.447Z" fill="#FCB33B"/>
<path d="M17.5084 13.4475C17.5084 13.8905 17.1604 14.2385 16.7175 14.2385C16.2745 14.2385 15.9265 13.8904 15.9265 13.4475C15.9265 12.7831 15.6576 12.1977 15.2305 11.7707L16.3537 10.6475C17.0655 11.3594 17.5084 12.356 17.5084 13.4475Z" fill="#F69838"/>
<path d="M20.6724 13.4468C20.6724 13.8897 20.3244 14.2378 19.8814 14.2378C19.4384 14.2378 19.0904 13.8897 19.0904 13.4468C19.0904 11.9281 18.4735 10.536 17.461 9.53938C16.4645 8.52699 15.0724 7.91005 13.5537 7.91005C13.1106 7.91005 12.7627 7.56195 12.7627 7.11909C12.7627 6.67607 13.1107 6.32812 13.5537 6.32812C15.5153 6.32812 17.287 7.11909 18.5842 8.4163C19.8815 9.71351 20.6724 11.4852 20.6724 13.4468Z" fill="#FCB33B"/>
<path d="M20.6723 13.4476C20.6723 13.8905 20.3243 14.2385 19.8813 14.2385C19.4384 14.2385 19.0904 13.8904 19.0904 13.4476C19.0904 11.9289 18.4734 10.5368 17.4609 9.54013L18.5842 8.41699C19.8813 9.71426 20.6723 11.486 20.6723 13.4476Z" fill="#F69838"/>
<path d="M23.8363 13.4476C23.8363 13.8906 23.4883 14.2386 23.0453 14.2386C22.6023 14.2386 22.2543 13.8905 22.2543 13.4476C22.2543 11.043 21.2735 8.87584 19.7074 7.29387C18.1255 5.72777 15.9582 4.74696 13.5537 4.74696C13.1106 4.74696 12.7627 4.39897 12.7627 3.956C12.7627 3.51303 13.1107 3.16504 13.5537 3.16504C16.3853 3.16504 18.9638 4.31981 20.8148 6.1865C22.6815 8.03732 23.8363 10.6159 23.8363 13.4476Z" fill="#FCB33B"/>
<path d="M23.8363 13.4477C23.8363 13.8906 23.4884 14.2386 23.0454 14.2386C22.6024 14.2386 22.2544 13.8905 22.2544 13.4477C22.2544 11.043 21.2736 8.87587 19.7075 7.29389L20.8149 6.18652C22.6816 8.03734 23.8363 10.6159 23.8363 13.4477Z" fill="#F69838"/>
<path d="M27.0001 13.4474C27.0001 13.8903 26.6521 14.2384 26.2091 14.2384C25.7662 14.2384 25.4182 13.8903 25.4182 13.4474C25.4182 10.1728 24.0893 7.21455 21.9379 5.06315C19.7866 2.91175 16.8283 1.5829 13.5537 1.5829C13.1106 1.5829 12.7627 1.23491 12.7627 0.791938C12.7627 0.34897 13.1107 0.000976562 13.5537 0.000976562C17.2554 0.000976562 20.6249 1.5038 23.0611 3.94002C25.4973 6.37608 27.0001 9.74564 27.0001 13.4474Z" fill="#FCB33B"/>
<path d="M27.0002 13.447C27.0002 13.8899 26.6522 14.2379 26.2092 14.2379C25.7662 14.2379 25.4182 13.8898 25.4182 13.447C25.4182 10.1723 24.0893 7.21409 21.938 5.06269L23.0612 3.93945C25.4973 6.37562 27.0002 9.74518 27.0002 13.447Z" fill="#F69838"/>
</g>
<defs>
<clipPath id="clip0_36_501">
<rect width="27" height="27" fill="white"/>
</clipPath>
</defs>
</svg>
