<svg width="46" height="50" viewBox="0 0 46 50" fill="none" xmlns="http://www.w3.org/2000/svg">
<path d="M6.78311 25.1506C6.78311 24.7191 7.13291 24.3693 7.56436 24.3693H27.3196C27.7511 24.3693 28.1009 24.7191 28.1009 25.1506C28.1009 25.582 27.7511 25.9318 27.3196 25.9318H7.56436C7.13291 25.9318 6.78311 25.582 6.78311 25.1506ZM7.49932 20.7964H27.2546C27.686 20.7964 28.0358 20.4466 28.0358 20.0151C28.0358 19.5837 27.686 19.2339 27.2546 19.2339H7.49932C7.06787 19.2339 6.71807 19.5837 6.71807 20.0151C6.71807 20.4466 7.06787 20.7964 7.49932 20.7964ZM6.48711 10.344C6.61328 9.95576 6.9583 9.69209 7.36602 9.67236L9.58291 9.56435L10.3708 7.48926C10.5153 7.1082 10.8727 6.86182 11.2811 6.86182C11.6896 6.86172 12.047 7.10801 12.1917 7.48936L12.9795 9.56445L15.1965 9.67256C15.604 9.69228 15.949 9.95596 16.0752 10.3442C16.2014 10.7325 16.0772 11.1486 15.7591 11.4043L14.0291 12.7948L14.6114 14.9367C14.7186 15.3306 14.5743 15.7401 14.244 15.9801C14.0723 16.1049 13.8724 16.1676 13.672 16.1676C13.4872 16.1676 13.3021 16.1143 13.1382 16.0069L11.2811 14.7912L9.42393 16.0069C9.08232 16.2306 8.64834 16.2199 8.31807 15.98C7.98789 15.74 7.84365 15.3305 7.95078 14.9365L8.53311 12.7946L6.80303 11.404C6.48496 11.1483 6.36084 10.7323 6.48711 10.344ZM8.99043 11.1574L9.8124 11.8182C10.1144 12.0611 10.2437 12.4593 10.142 12.8329L9.86533 13.8504L10.7477 13.2728C10.9099 13.1668 11.0955 13.1138 11.2812 13.1138C11.467 13.1138 11.6526 13.1668 11.8146 13.2729L12.6969 13.8505L12.4202 12.8328C12.3186 12.4592 12.4479 12.0609 12.7498 11.8183L13.5718 11.1575L12.5185 11.1062C12.1317 11.0874 11.793 10.8413 11.6555 10.4793L11.2811 9.49326L10.9067 10.4792C10.7692 10.8413 10.4305 11.0874 10.0438 11.1062L8.99043 11.1574ZM18.9388 10.344C19.0649 9.95576 19.41 9.69209 19.8177 9.67236L22.0345 9.56435L22.8224 7.48916C22.9669 7.1082 23.3242 6.86182 23.7326 6.86172C24.1411 6.86162 24.4985 7.10791 24.6433 7.48916L25.4311 9.56426L27.6481 9.67236C28.0557 9.69209 28.4007 9.95576 28.5269 10.344C28.653 10.7323 28.5289 11.1483 28.2107 11.4041L26.4808 12.7946L27.0631 14.9365C27.1702 15.3303 27.0261 15.7399 26.6958 15.9799C26.3655 16.2198 25.9315 16.2304 25.59 16.0068L23.7329 14.7911L21.8758 16.0068C21.712 16.1141 21.5268 16.1675 21.3421 16.1675C21.1417 16.1675 20.9419 16.1048 20.77 15.98C20.4397 15.74 20.2956 15.3305 20.4026 14.9365L20.9849 12.7946L19.2548 11.404C18.9366 11.1483 18.8125 10.7323 18.9388 10.344ZM21.4421 11.1574L22.2641 11.8182C22.566 12.0608 22.6954 12.4591 22.5937 12.8329L22.317 13.8504L23.1993 13.2728C23.5234 13.0607 23.942 13.0608 24.2659 13.2727L25.1484 13.8504L24.8718 12.8327C24.7701 12.4591 24.8996 12.0608 25.2014 11.8182L26.0233 11.1574L24.97 11.1062C24.5832 11.0873 24.2444 10.8412 24.107 10.4792L23.7327 9.49316L23.3584 10.4791C23.2212 10.841 22.8823 11.0873 22.4954 11.1062L21.4421 11.1574ZM45.162 37.4716C45.162 43.9507 39.8909 49.2217 33.4119 49.2217C29.148 49.2217 25.4075 46.9385 23.348 43.5307H2.44941C1.56084 43.5307 0.837891 42.8078 0.837891 41.9191V2.3957C0.837988 1.50713 1.56084 0.78418 2.44941 0.78418H27.9025C28.3394 0.78418 28.7334 0.947461 29.0421 1.25625L33.7039 5.91807C34.0127 6.22695 34.1759 6.6209 34.1759 7.05752V25.7469C40.3002 26.142 45.162 31.2492 45.162 37.4716ZM29.0277 3.45146V5.93242H31.5087L29.0277 3.45146ZM22.5569 41.9682C21.9808 40.5823 21.6619 39.0636 21.6619 37.4716C21.6619 37.0428 21.6856 36.6195 21.7307 36.2025H7.69434C7.26289 36.2025 6.91309 35.8527 6.91309 35.4213C6.91309 34.9898 7.26289 34.64 7.69434 34.64H22.0076C22.3273 33.3526 22.8598 32.1485 23.5655 31.0672H7.6293C7.19785 31.0672 6.84805 30.7174 6.84805 30.2859C6.84805 29.8545 7.19785 29.5047 7.6293 29.5047H24.7836C26.7626 27.363 29.5264 25.9573 32.6136 25.7491V7.49492H28.6617C28.0021 7.49492 27.4653 6.9582 27.4653 6.29854V2.34668H2.44941C2.42373 2.34668 2.40039 2.37002 2.40039 2.3957V41.919C2.40039 41.9447 2.42373 41.9681 2.44941 41.9681H22.5569V41.9682ZM43.5995 37.4716C43.5995 31.8541 39.0294 27.284 33.4119 27.284C27.7944 27.284 23.2243 31.8541 23.2243 37.4716C23.2243 43.0891 27.7944 47.6592 33.4119 47.6592C39.0294 47.6592 43.5995 43.0891 43.5995 37.4716ZM41.691 37.4716C41.691 42.0366 37.9771 45.7506 33.412 45.7506C31.8742 45.7506 30.3729 45.3258 29.0704 44.5222C28.8671 44.3968 28.7324 44.1852 28.7047 43.9479C28.677 43.7106 28.7594 43.4737 28.9282 43.3048L39.2453 32.9878C39.4142 32.8189 39.6511 32.7367 39.8884 32.7643C40.1257 32.792 40.3372 32.9268 40.4626 33.1301C41.2662 34.4325 41.691 35.9338 41.691 37.4716ZM40.1285 37.4716C40.1285 36.5638 39.9463 35.6719 39.5961 34.8467L30.7871 43.6557C31.6122 44.0059 32.5042 44.1881 33.412 44.1881C37.1154 44.1881 40.1285 41.1751 40.1285 37.4716ZM37.8957 31.6383C37.8957 31.6383 27.5842 41.9498 27.5786 41.9553C27.2276 42.3063 26.6214 42.2346 26.3613 41.813C25.5577 40.5104 25.1329 39.0092 25.1329 37.4715C25.1329 32.9064 28.8469 29.1925 33.412 29.1925C34.9498 29.1925 36.4511 29.6173 37.7536 30.4209C37.9569 30.5463 38.0916 30.7579 38.1193 30.9952C38.147 31.2324 38.0647 31.4693 37.8957 31.6383ZM36.0368 31.2875C35.2117 30.9373 34.3197 30.7551 33.412 30.7551C29.7085 30.7551 26.6954 33.7682 26.6954 37.4716C26.6954 38.3795 26.8776 39.2713 27.2278 40.0965L36.0368 31.2875Z" fill="white"/>
</svg>
