<svg width="40" height="41" viewBox="0 0 40 41" fill="none" xmlns="http://www.w3.org/2000/svg">
<g clip-path="url(#clip0_96_30)">
<path d="M23.75 7.50293H8.75C8.06 7.50293 7.5 8.06293 7.5 8.75293C7.5 9.44293 8.06 10.0029 8.75 10.0029H23.75C24.44 10.0029 25 9.44293 25 8.75293C25 8.06293 24.44 7.50293 23.75 7.50293Z" fill="white"/>
<path d="M18.75 12.5029H8.75C8.06 12.5029 7.5 13.0629 7.5 13.7529C7.5 14.4429 8.06 15.0029 8.75 15.0029H18.75C19.44 15.0029 20 14.4429 20 13.7529C20 13.0629 19.44 12.5029 18.75 12.5029Z" fill="white"/>
<path d="M27.5 0.00292969H5C2.2425 0.00292969 0 2.24543 0 5.00293V30.0029C0 30.4879 0.28 30.9304 0.72 31.1354C0.8875 31.2129 1.07 31.2529 1.25 31.2529C1.5375 31.2529 1.8225 31.1529 2.05 30.9629L9.2025 25.0029H27.5C30.2575 25.0029 32.5 22.7604 32.5 20.0029V5.00293C32.5 2.24543 30.2575 0.00292969 27.5 0.00292969ZM30 20.0029C30 21.3804 28.88 22.5029 27.5 22.5029H8.75C8.4575 22.5029 8.175 22.6054 7.95 22.7929L2.5 27.3354V5.00293C2.5 3.62543 3.62 2.50293 5 2.50293H27.5C28.88 2.50293 30 3.62543 30 5.00293V20.0029Z" fill="white"/>
<path d="M35 10.0029C34.31 10.0029 33.75 10.5629 33.75 11.2529C33.75 11.9429 34.31 12.5029 35 12.5029C36.38 12.5029 37.5 13.6254 37.5 15.0029V36.1504L33.28 32.7754C33.06 32.6004 32.7825 32.5029 32.5 32.5029H15C13.62 32.5029 12.5 31.3804 12.5 30.0029V28.7529C12.5 28.0629 11.94 27.5029 11.25 27.5029C10.56 27.5029 10 28.0629 10 28.7529V30.0029C10 32.7604 12.2425 35.0029 15 35.0029H32.06L37.9675 39.7304C38.195 39.9104 38.4725 40.0029 38.75 40.0029C38.9325 40.0029 39.1175 39.9629 39.2925 39.8804C39.725 39.6704 40 39.2329 40 38.7529V15.0029C40 12.2454 37.7575 10.0029 35 10.0029Z" fill="white"/>
</g>
<defs>
<clipPath id="clip0_96_30">
<rect width="40" height="40" fill="white" transform="translate(0 0.00292969)"/>
</clipPath>
</defs>
</svg>
