<svg width="41" height="41" viewBox="0 0 41 41" fill="none" xmlns="http://www.w3.org/2000/svg">
<path d="M9.59064 19.2243H31.3294C36.6177 19.2243 40.9201 14.9219 40.9201 9.63361C40.9201 4.34533 36.6177 0.0429688 31.3294 0.0429688H9.59064C4.30236 0.0429688 0 4.34533 0 9.63361C0 14.9219 4.30236 19.2243 9.59064 19.2243ZM31.3294 2.44063C35.2956 2.44063 38.5224 5.6674 38.5224 9.63361C38.5224 13.5998 35.2956 16.8266 31.3294 16.8266H15.9268C17.921 15.0678 19.1813 12.4953 19.1813 9.63361C19.1813 6.77192 17.921 4.19939 15.9268 2.44063H31.3294ZM9.59064 2.44063C13.5569 2.44063 16.7836 5.6674 16.7836 9.63361C16.7836 13.5998 13.5569 16.8266 9.59064 16.8266C5.62443 16.8266 2.39766 13.5998 2.39766 9.63361C2.39766 5.6674 5.62443 2.44063 9.59064 2.44063Z" fill="white"/>
<path d="M6.20075 11.3277C5.73256 11.7959 5.73256 12.5549 6.20075 13.0231C7.10722 13.9296 8.31101 14.4288 9.5904 14.4288C10.8698 14.4288 12.0736 13.9296 12.9801 13.0231C13.4482 12.5549 13.4482 11.7959 12.9801 11.3277C12.5119 10.8595 11.7528 10.8595 11.2847 11.3277C10.831 11.7813 10.2293 12.0311 9.5904 12.0311C8.9515 12.0311 8.34977 11.7813 7.89621 11.3277C7.42803 10.8595 6.66901 10.8595 6.20075 11.3277Z" fill="white"/>
<path d="M13.1871 8.43477C13.8492 8.43477 14.3859 7.89804 14.3859 7.23594C14.3859 6.57384 13.8492 6.03711 13.1871 6.03711C12.525 6.03711 11.9883 6.57384 11.9883 7.23594C11.9883 7.89804 12.525 8.43477 13.1871 8.43477Z" fill="white"/>
<path d="M5.99424 8.43477C6.65634 8.43477 7.19307 7.89804 7.19307 7.23594C7.19307 6.57384 6.65634 6.03711 5.99424 6.03711C5.33214 6.03711 4.79541 6.57384 4.79541 7.23594C4.79541 7.89804 5.33214 8.43477 5.99424 8.43477Z" fill="white"/>
<path d="M31.4094 21.7822H9.59064C4.30236 21.7822 0 26.0846 0 31.3729C0 36.6612 4.30236 40.9635 9.59064 40.9635H31.4094C36.6976 40.9635 41 36.6612 41 31.3729C41 26.0846 36.6976 21.7822 31.4094 21.7822ZM9.59064 38.5659C5.62443 38.5659 2.39766 35.3391 2.39766 31.3729C2.39766 27.4067 5.62443 24.1799 9.59064 24.1799H25.0732C23.079 25.9387 21.8187 28.5112 21.8187 31.3729C21.8187 34.2346 23.079 36.8071 25.0732 38.5659H9.59064ZM31.4094 38.5659C27.4431 38.5659 24.2164 35.3391 24.2164 31.3729C24.2164 27.4067 27.4431 24.1799 31.4094 24.1799C35.3756 24.1799 38.6023 27.4067 38.6023 31.3729C38.6023 35.3391 35.3756 38.5659 31.4094 38.5659Z" fill="white"/>
<path d="M31.4092 32.7158C30.1298 32.7158 28.926 33.215 28.0195 34.1215C27.5514 34.5897 27.5514 35.3487 28.0195 35.8169C28.4877 36.2851 29.2467 36.2851 29.7149 35.8169C30.1685 35.3632 30.7702 35.1135 31.4091 35.1135C32.048 35.1135 32.6497 35.3633 33.1034 35.8169C33.5716 36.2851 34.3306 36.2851 34.7988 35.8169C35.2669 35.3487 35.2669 34.5897 34.7988 34.1215C33.8924 33.2151 32.6886 32.7158 31.4092 32.7158Z" fill="white"/>
<path d="M35.006 30.174C35.6681 30.174 36.2048 29.6373 36.2048 28.9752C36.2048 28.3131 35.6681 27.7764 35.006 27.7764C34.3439 27.7764 33.8071 28.3131 33.8071 28.9752C33.8071 29.6373 34.3439 30.174 35.006 30.174Z" fill="white"/>
<path d="M27.8131 30.174C28.4752 30.174 29.0119 29.6373 29.0119 28.9752C29.0119 28.3131 28.4752 27.7764 27.8131 27.7764C27.151 27.7764 26.6143 28.3131 26.6143 28.9752C26.6143 29.6373 27.151 30.174 27.8131 30.174Z" fill="white"/>
</svg>
