<svg width="16" height="22" viewBox="0 0 16 22" fill="none" xmlns="http://www.w3.org/2000/svg">
<path d="M14.7252 0.0210613C13.8126 -0.144857 12.6927 0.622515 12.0497 1.16175C11.1786 1.88764 10.515 2.88315 9.87204 3.7957C8.75209 5.39266 7.77732 7.07258 6.94773 8.81472C6.7196 8.10957 6.49146 7.40442 6.28406 6.69927C5.95222 5.66228 5.57891 4.54233 4.62488 3.92014C2.90348 2.82093 0.290263 4.35567 0.0206459 6.24299C-0.145272 7.42516 0.435442 8.56585 0.912457 9.58209C1.45169 10.7228 2.0324 11.8427 2.6546 12.9212C3.87825 15.0367 5.30929 17.0484 6.88551 18.9357C6.36702 19.8483 5.82779 20.7816 5.30929 21.6941C5.10189 22.0467 5.64113 21.9015 5.80705 21.8393C6.15962 21.7149 6.74034 21.4245 6.92699 21.0719C7.34179 20.346 7.75659 19.6201 8.17138 18.8943C8.58618 18.6246 8.91801 18.3135 8.81431 18.1891C8.77283 18.1269 8.71062 18.0647 8.66914 18.0024C9.51947 16.5507 10.3698 15.0781 11.1994 13.6056C12.4853 11.2828 13.8126 8.89768 14.7666 6.42965C15.2436 5.206 15.617 3.8994 15.6584 2.57205C15.7207 1.74246 15.8036 0.207719 14.7252 0.0210613ZM13.543 5.80746C12.7549 8.58659 11.2616 11.1998 9.87204 13.7093C9.24985 14.85 8.60692 15.9907 7.96398 17.1106C5.68261 14.29 3.77455 11.1791 2.30202 7.86069C1.90797 6.96888 1.53465 5.97337 1.84575 4.99861C1.86649 4.91565 1.97019 4.77047 2.0324 4.66677C2.15684 4.66677 2.30202 4.66677 2.38498 4.68751C2.88274 4.83269 3.31827 5.18526 3.62937 5.60006C4.21008 6.36743 4.43822 7.3422 4.72858 8.23401C5.08115 9.35396 5.43373 10.4739 5.78631 11.5939C5.91074 11.9879 7.40401 10.9302 7.50771 10.6813C8.52396 8.02661 9.8513 5.5171 11.4897 3.19425C11.8631 2.67575 12.2364 2.178 12.6304 1.68024C12.7964 1.47285 12.983 1.12027 13.2319 1.12027C13.5222 1.12027 13.7296 1.49358 13.8126 1.72172C14.2481 2.92463 13.8748 4.62529 13.543 5.80746Z" fill="white"/>
</svg>
