<svg width="45" height="45" viewBox="0 0 45 45" fill="none" xmlns="http://www.w3.org/2000/svg">
<path d="M22.4193 12.0799C22.3743 12.0799 22.3293 12.0799 22.2843 12.075C22.02 12.0477 21.7652 11.9615 21.5386 11.8228C21.312 11.6841 21.1193 11.4964 20.9748 11.2735C20.9208 11.1941 20.8833 11.1047 20.8644 11.0105C20.8455 10.9164 20.8457 10.8194 20.8648 10.7253C20.884 10.6312 20.9218 10.5419 20.976 10.4627C21.0301 10.3834 21.0996 10.3158 21.1803 10.2637C21.261 10.2117 21.3513 10.1764 21.4459 10.1598C21.5405 10.1432 21.6374 10.1457 21.731 10.1671C21.8246 10.1885 21.913 10.2284 21.9909 10.2845C22.0689 10.3406 22.1348 10.4117 22.1848 10.4937C22.232 10.5646 22.3033 10.6161 22.3855 10.6386C22.4371 10.643 22.4891 10.6372 22.5384 10.6215C22.5878 10.6058 22.6335 10.5804 22.673 10.547C22.7125 10.5135 22.7451 10.4726 22.7687 10.4265C22.7923 10.3805 22.8066 10.3302 22.8108 10.2786C22.8146 10.228 22.8084 10.1772 22.7924 10.129C22.7764 10.0809 22.751 10.0364 22.7176 9.99821C22.6501 9.91963 22.5541 9.87108 22.4508 9.86321H22.4472C22.2042 9.85036 21.9663 9.78914 21.7473 9.68314C21.5283 9.57714 21.3327 9.42849 21.1719 9.24591C21.0111 9.06333 20.8884 8.85048 20.8109 8.61985C20.7335 8.38923 20.7028 8.14546 20.7208 7.90283C20.7388 7.66021 20.805 7.42361 20.9156 7.20691C21.0262 6.99022 21.1789 6.79778 21.3649 6.64088C21.5508 6.48398 21.7662 6.36577 21.9984 6.29319C22.2306 6.22062 22.475 6.19512 22.7172 6.21821C22.9814 6.2456 23.2361 6.33179 23.4626 6.47048C23.6891 6.60917 23.8817 6.79682 24.0262 7.01966C24.1298 7.1803 24.1652 7.37549 24.1249 7.56229C24.0845 7.74909 23.9715 7.9122 23.8109 8.01573C23.6503 8.11927 23.4551 8.15475 23.2683 8.11437C23.0815 8.07399 22.9184 7.96105 22.8148 7.80041C22.7673 7.72954 22.6959 7.67811 22.6137 7.65551C22.5621 7.65107 22.5101 7.65688 22.4608 7.67259C22.4115 7.68831 22.3657 7.71362 22.3262 7.74708C22.2867 7.78054 22.2542 7.82147 22.2305 7.86754C22.2069 7.91361 22.1926 7.9639 22.1884 8.01551C22.1846 8.06608 22.1909 8.1169 22.2069 8.16503C22.2229 8.21315 22.2483 8.25763 22.2816 8.29586C22.3494 8.37435 22.4455 8.42287 22.5489 8.43086H22.5516C23.0235 8.46566 23.4635 8.68211 23.7791 9.03469C24.0947 9.38726 24.2613 9.84849 24.2438 10.3214C24.2263 10.7942 24.0261 11.2419 23.6854 11.5702C23.3446 11.8985 22.8898 12.0819 22.4166 12.0817L22.4193 12.0799Z" fill="white"/>
<path d="M22.4998 7.66112C22.3088 7.66112 22.1257 7.58526 21.9907 7.45024C21.8556 7.31521 21.7798 7.13207 21.7798 6.94112V6.26297C21.7798 6.07201 21.8556 5.88888 21.9907 5.75385C22.1257 5.61883 22.3088 5.54297 22.4998 5.54297C22.6907 5.54297 22.8739 5.61883 23.0089 5.75385C23.1439 5.88888 23.2198 6.07201 23.2198 6.26297V6.94112C23.2198 7.03567 23.2012 7.1293 23.165 7.21665C23.1288 7.30401 23.0758 7.38338 23.0089 7.45024C22.942 7.51709 22.8627 7.57013 22.7753 7.60631C22.688 7.6425 22.5943 7.66112 22.4998 7.66112Z" fill="white"/>
<path d="M22.4998 12.7519C22.3088 12.7519 22.1257 12.6761 21.9907 12.5411C21.8556 12.406 21.7798 12.2229 21.7798 12.0319V11.3538C21.7798 11.1628 21.8556 10.9797 21.9907 10.8447C22.1257 10.7096 22.3088 10.6338 22.4998 10.6338C22.6907 10.6338 22.8739 10.7096 23.0089 10.8447C23.1439 10.9797 23.2198 11.1628 23.2198 11.3538V12.0319C23.2198 12.2229 23.1439 12.406 23.0089 12.5411C22.8739 12.6761 22.6907 12.7519 22.4998 12.7519Z" fill="white"/>
<path d="M22.4999 14.515C19.5299 14.515 17.1094 12.1053 17.1094 9.14742C17.1094 6.18957 19.5299 3.78027 22.4999 3.78027C25.4699 3.78027 27.8905 6.18822 27.8905 9.14742C27.8905 12.1066 25.4722 14.515 22.4999 14.515ZM22.4999 5.22027C20.3215 5.22027 18.5494 6.98202 18.5494 9.14742C18.5494 11.3128 20.3215 13.075 22.4999 13.075C24.6784 13.075 26.4505 11.3133 26.4505 9.14742C26.4505 6.98157 24.6784 5.22027 22.4999 5.22027Z" fill="white"/>
<path d="M29.5966 22.2752C29.4887 22.2752 29.3821 22.2509 29.2848 22.2042C29.1875 22.1575 29.102 22.0895 29.0345 22.0052L25.5313 17.6402C25.1006 17.1034 24.5899 16.8082 24.0913 16.8082H16.2703C16.0793 16.8082 15.8962 16.7323 15.7612 16.5973C15.6261 16.4623 15.5503 16.2791 15.5503 16.0882C15.5503 15.8972 15.6261 15.7141 15.7612 15.579C15.8962 15.444 16.0793 15.3682 16.2703 15.3682H24.0926C25.0376 15.3682 25.9448 15.8551 26.6545 16.7384L30.1577 21.1034C30.2425 21.2092 30.2956 21.3368 30.311 21.4715C30.3264 21.6062 30.3035 21.7425 30.2449 21.8648C30.1863 21.987 30.0943 22.0902 29.9796 22.1625C29.8649 22.2348 29.7322 22.2732 29.5966 22.2734V22.2752Z" fill="white"/>
<path d="M37.5616 28.402H14.3605C14.0985 28.3952 13.8443 28.311 13.6301 28.16C13.4158 28.0089 13.2511 27.7978 13.1567 27.5533L5.22009 5.75124C5.10776 5.44182 5.1228 5.10047 5.26193 4.80213C5.40106 4.50379 5.6529 4.27286 5.96214 4.16004C7.53859 3.59086 9.27628 3.66897 10.7953 4.37729C12.3143 5.08562 13.4911 6.36655 14.0684 7.94004L18.7651 20.8352H32.4784C35.9659 20.8352 38.8031 23.6702 38.8031 27.16C38.8028 27.4892 38.6719 27.8048 38.4391 28.0377C38.2064 28.2705 37.8908 28.4015 37.5616 28.402ZM14.4739 26.962H37.3591C37.3064 25.7023 36.7694 24.5117 35.86 23.6384C34.9506 22.7652 33.7392 22.2768 32.4784 22.2752H18.2584C18.1109 22.2749 17.9671 22.2293 17.8463 22.1445C17.7256 22.0598 17.6338 21.94 17.5834 21.8014L12.7166 8.43279C12.2841 7.24866 11.411 6.2773 10.2795 5.72141C9.14798 5.16552 7.84553 5.06803 6.64389 5.44929L14.4739 26.962Z" fill="white"/>
<path d="M15.8189 35.9871C15.6931 35.987 15.5696 35.9539 15.4605 35.8911C15.3515 35.8284 15.2608 35.7382 15.1975 35.6295C15.1341 35.5208 15.1004 35.3974 15.0996 35.2716C15.0988 35.1458 15.131 35.022 15.193 34.9125L17.1217 31.4997L19.4671 27.3511C19.5123 27.2664 19.5739 27.1915 19.6485 27.1309C19.723 27.0703 19.809 27.0253 19.9012 26.9984C19.9934 26.9716 20.0901 26.9635 20.1855 26.9745C20.2809 26.9856 20.3731 27.0156 20.4568 27.0629C20.5404 27.1102 20.6137 27.1737 20.6724 27.2497C20.7311 27.3257 20.774 27.4128 20.7986 27.5056C20.8231 27.5985 20.8289 27.6953 20.8154 27.7904C20.802 27.8855 20.7697 27.977 20.7203 28.0594L18.3749 32.2084L16.4462 35.6194C16.3837 35.7309 16.2926 35.8236 16.1824 35.8883C16.0722 35.9529 15.9467 35.987 15.8189 35.9871Z" fill="white"/>
<path d="M17.5761 37.0525C17.4506 37.0524 17.3273 37.0194 17.2184 36.9569C17.1095 36.8944 17.0189 36.8045 16.9555 36.6962C16.8921 36.5878 16.8581 36.4648 16.857 36.3393C16.8558 36.2138 16.8874 36.0901 16.9488 35.9806L19.4548 31.5045L21.78 27.3555C21.8262 27.273 21.8882 27.2004 21.9625 27.1418C22.0367 27.0833 22.1218 27.04 22.2128 27.0143C22.3038 26.9887 22.399 26.9812 22.4929 26.9923C22.5868 27.0034 22.6776 27.0329 22.7601 27.0792C22.8426 27.1254 22.9152 27.1874 22.9737 27.2616C23.0322 27.3359 23.0756 27.421 23.1012 27.512C23.1269 27.603 23.1344 27.6982 23.1232 27.7921C23.1121 27.886 23.0826 27.9768 23.0364 28.0593L20.713 32.2083L18.207 36.6844C18.1442 36.7965 18.0526 36.8897 17.9417 36.9544C17.8307 37.0191 17.7045 37.053 17.5761 37.0525Z" fill="white"/>
<path d="M31.0593 37.0437C30.932 37.0438 30.807 37.0101 30.6969 36.946C30.5869 36.882 30.4958 36.7899 30.4329 36.6792L25.532 28.0514C25.4842 27.9691 25.4532 27.8782 25.4408 27.7839C25.4283 27.6896 25.4347 27.5938 25.4595 27.5019C25.4843 27.4101 25.5271 27.3241 25.5853 27.2489C25.6436 27.1737 25.7161 27.1107 25.7988 27.0637C25.8815 27.0167 25.9727 26.9866 26.0671 26.9751C26.1616 26.9635 26.2573 26.9708 26.3489 26.9965C26.4405 27.0221 26.5261 27.0657 26.6008 27.1247C26.6754 27.1836 26.7377 27.2568 26.7839 27.3399L31.6848 35.9678C31.7471 36.0773 31.7796 36.2012 31.779 36.3271C31.7784 36.4531 31.7447 36.5767 31.6814 36.6856C31.6181 36.7945 31.5274 36.8849 31.4182 36.9477C31.309 37.0106 31.1853 37.0437 31.0593 37.0437Z" fill="white"/>
<path d="M32.816 35.975C32.6886 35.9751 32.5635 35.9415 32.4533 35.8774C32.3432 35.8134 32.2521 35.7213 32.1892 35.6105L27.8953 28.0505C27.8485 27.9683 27.8185 27.8776 27.8068 27.7838C27.7951 27.6899 27.802 27.5947 27.8271 27.5035C27.8522 27.4124 27.8951 27.327 27.9532 27.2524C28.0113 27.1778 28.0835 27.1153 28.1657 27.0686C28.2479 27.0219 28.3386 26.9918 28.4324 26.9801C28.5263 26.9684 28.6215 26.9754 28.7127 27.0005C28.8038 27.0256 28.8892 27.0684 28.9638 27.1265C29.0384 27.1846 29.1009 27.2568 29.1476 27.339L33.4415 34.899C33.5037 35.0085 33.536 35.1324 33.5354 35.2583C33.5347 35.3842 33.5011 35.5077 33.4378 35.6165C33.3745 35.7254 33.2838 35.8157 33.1747 35.8785C33.0656 35.9413 32.9419 35.9744 32.816 35.9746V35.975Z" fill="white"/>
<path d="M24.3091 41.2201C21.1995 41.2196 18.143 40.414 15.437 38.8818C12.7311 37.3496 10.4679 35.1429 8.86782 32.4766C8.81882 32.3954 8.78632 32.3054 8.7722 32.2117C8.75807 32.1179 8.7626 32.0223 8.78551 31.9303C8.80842 31.8384 8.84927 31.7518 8.90571 31.6757C8.96216 31.5995 9.03308 31.5352 9.11442 31.4866L11.2951 30.1789C11.3763 30.1299 11.4663 30.0974 11.56 30.0832C11.6538 30.0691 11.7494 30.0736 11.8413 30.0965C11.9333 30.1195 12.0199 30.1603 12.096 30.2167C12.1722 30.2732 12.2364 30.3441 12.2851 30.4255C13.2564 32.0448 14.5447 33.4514 16.0728 34.5608C17.6009 35.6702 19.3372 36.4597 21.1777 36.8818C23.0183 37.3039 24.9251 37.3501 26.7839 37.0175C28.6427 36.6849 30.4152 35.9804 31.9951 34.9462C32.4736 34.6317 32.9327 34.2886 33.3699 33.9188C34.5443 32.9247 35.5477 31.7446 36.3399 30.4255C36.4382 30.2618 36.5975 30.1439 36.7827 30.0976C36.9679 30.0514 37.1639 30.0806 37.3276 30.1789L39.5083 31.4888C39.5897 31.5375 39.6606 31.6017 39.717 31.6779C39.7735 31.7541 39.8143 31.8406 39.8372 31.9326C39.8601 32.0246 39.8647 32.1202 39.8505 32.2139C39.8364 32.3076 39.8039 32.3977 39.7549 32.4788C38.155 35.1462 35.8912 37.3534 33.1842 38.8854C30.4773 40.4174 27.4195 41.2217 24.3091 41.2201ZM10.4851 32.3443C11.9949 34.6298 14.0478 36.5054 16.4601 37.803C18.8724 39.1006 21.5688 39.7798 24.308 39.7798C27.0472 39.7798 29.7436 39.1006 32.1559 37.803C34.5682 36.5054 36.6211 34.6298 38.1309 32.3443L37.1859 31.7755C35.7744 33.8974 33.8603 35.6377 31.614 36.8414C29.3676 38.0451 26.8586 38.6749 24.31 38.6749C21.7615 38.6749 19.2524 38.0451 17.0061 36.8414C14.7597 35.6377 12.8457 33.8974 11.4342 31.7755L10.4851 32.3443Z" fill="white"/>
</svg>
