<svg width="45" height="45" viewBox="0 0 45 45" fill="none" xmlns="http://www.w3.org/2000/svg">
<path d="M15.8999 9.38965C16.0899 9.38965 16.2762 9.3123 16.4108 9.17793C16.5452 9.04356 16.6226 8.85725 16.6226 8.66699C16.6226 8.47701 16.5452 8.2907 16.4108 8.15605C16.2762 8.02168 16.0899 7.94434 15.8999 7.94434C15.7091 7.94434 15.5233 8.02168 15.389 8.15605C15.2537 8.2907 15.1772 8.47701 15.1772 8.66699C15.1772 8.85725 15.2537 9.04356 15.389 9.17793C15.5233 9.3123 15.7091 9.38965 15.8999 9.38965Z" fill="white"/>
<path d="M40.7127 14.7266L22.9449 4.03126C22.7157 3.89322 22.4289 3.89322 22.1997 4.03126L18.0531 6.52725C17.711 6.73304 17.6006 7.17708 17.8067 7.51921C18.0125 7.86106 18.4565 7.97144 18.7984 7.76565L22.5723 5.4938L37.7382 14.623H7.40665L13.8445 10.7475C14.1864 10.5417 14.2967 10.0976 14.0909 9.75578C13.8852 9.41365 13.4411 9.30356 13.099 9.50934L4.43218 14.7266C4.15385 14.894 4.02145 15.2262 4.1084 15.539C4.19534 15.8518 4.48017 16.0683 4.8048 16.0683H5.95117V28.9375C4.78194 30.2123 4.07227 31.9123 4.07227 33.7762C4.07227 37.7195 7.28047 40.9277 11.2237 40.9277H38.4707C38.8699 40.9277 39.1934 40.6042 39.1934 40.205V16.0683H40.3398C40.6644 16.0683 40.9492 15.8518 41.0362 15.539C41.1231 15.2262 40.9907 14.894 40.7127 14.7266ZM5.51758 33.7762C5.51758 30.957 7.55231 28.6084 10.2623 28.1516V29.4787C8.28428 29.919 6.81752 31.691 6.81752 33.7765C6.81752 36.205 8.79297 38.1805 11.2212 38.1805C13.1967 38.1805 14.8938 36.887 15.4414 35.038H16.7854L16.8407 35.1349C16.7764 35.21 16.7258 35.2992 16.6959 35.3999C15.9837 37.8036 13.7336 39.4824 11.2237 39.4824C8.07737 39.4824 5.51758 36.9226 5.51758 33.7762ZM15.005 31.886H17.2399C17.9611 31.886 18.6236 32.2795 18.9686 32.913L21.9786 38.4402C22.0701 38.6081 22.0879 38.8009 22.0292 38.983C21.9704 39.1651 21.8429 39.311 21.6704 39.3938C21.3488 39.5479 20.9582 39.4262 20.7812 39.1165L17.8321 33.9569C17.7034 33.7319 17.464 33.593 17.2046 33.593H12.9948C12.2851 33.593 11.7076 33.0155 11.7076 32.3058V25.9354C11.7076 25.2444 12.2293 24.6645 12.8952 24.6151C12.9285 24.6126 12.9618 24.6115 12.9948 24.6115C13.322 24.6115 13.6297 24.7314 13.8705 24.955C14.1361 25.2014 14.2823 25.5368 14.2823 25.8987V26.1615C14.2823 26.5604 14.6058 26.8842 15.005 26.8842H17.3404C17.6704 26.8842 17.9391 27.1526 17.9391 27.4826C17.9391 27.8126 17.6704 28.0813 17.3404 28.0813H15.005C14.6058 28.0813 14.2823 28.4049 14.2823 28.804V31.1634C14.2823 31.5625 14.6058 31.886 15.005 31.886ZM12.9951 35.0383H13.9001C13.4242 36.0551 12.3958 36.7352 11.2212 36.7352C9.58986 36.7352 8.26283 35.4081 8.26283 33.7768C8.26283 32.4881 9.09558 31.3785 10.2623 30.9779V32.3055C10.2623 33.8124 11.4883 35.0383 12.9951 35.0383ZM12.9951 23.1661C12.216 23.1661 11.582 22.5324 11.582 21.753C11.582 20.9739 12.216 20.3402 12.9951 20.3402C13.7739 20.3402 14.408 20.9739 14.408 21.753C14.408 22.5321 13.7739 23.1661 12.9951 23.1661ZM15.5405 39.4784C16.4924 38.7569 17.2529 37.796 17.7432 36.714L19.3257 39.4824H15.5351C15.5368 39.481 15.5388 39.4799 15.5405 39.4784ZM37.7481 39.4824H36.0137V30.0672C36.0137 29.6684 35.6902 29.3446 35.291 29.3446C34.8919 29.3446 34.5684 29.6684 34.5684 30.0672V39.4618H26.4746V20.6727H34.5684V24.286C34.5684 24.6851 34.8919 25.0086 35.291 25.0086C35.6902 25.0086 36.0137 24.6851 36.0137 24.286V19.95C36.0137 19.5509 35.6902 19.2274 35.291 19.2274H25.752C25.3528 19.2274 25.0293 19.5509 25.0293 19.95V39.4824H23.3853C23.3918 39.464 23.3985 39.446 23.4045 39.4276C23.5837 38.8727 23.5267 38.2609 23.2478 37.7489L20.238 32.2219C19.6396 31.1233 18.491 30.4407 17.2399 30.4407H15.7277V29.5267H17.3406C18.4675 29.5267 19.3844 28.6098 19.3844 27.4826C19.3844 26.3554 18.4675 25.4389 17.3406 25.4389H15.6884C15.5885 24.8579 15.3017 24.3179 14.8681 23.9094C15.4711 23.3849 15.8533 22.6131 15.8533 21.753C15.8533 20.177 14.5711 18.8949 12.9951 18.8949C11.4191 18.8949 10.1367 20.177 10.1367 21.753C10.1367 22.6165 10.5223 23.3911 11.1295 23.9156C10.5957 24.424 10.2626 25.1447 10.2626 25.9354V26.6888C9.2164 26.8286 8.24505 27.1921 7.39677 27.7291V16.0683H37.7484V39.4824H37.7481Z" fill="white"/>
<path d="M35.291 26.4541C35.101 26.4541 34.9144 26.5309 34.7801 26.6658C34.6457 26.8002 34.5684 26.9862 34.5684 27.1768C34.5684 27.3667 34.6457 27.5533 34.7801 27.6877C34.9144 27.8221 35.101 27.8994 35.291 27.8994C35.481 27.8994 35.6676 27.8221 35.802 27.6877C35.9363 27.5525 36.0137 27.3667 36.0137 27.1768C36.0137 26.9859 35.9363 26.8002 35.802 26.6658C35.6676 26.5309 35.481 26.4541 35.291 26.4541Z" fill="white"/>
<path d="M28.5983 29.3447H28.1367C27.7376 29.3447 27.4141 29.6685 27.4141 30.0674C27.4141 30.4665 27.7376 30.79 28.1367 30.79H28.5983C28.9974 30.79 29.3209 30.4665 29.3209 30.0674C29.3209 29.6685 28.9974 29.3447 28.5983 29.3447Z" fill="white"/>
</svg>
