<svg width="35" height="29" viewBox="0 0 35 29" fill="none" xmlns="http://www.w3.org/2000/svg">
<path d="M31.2194 8.45554C30.5809 3.73669 26.636 0.206055 21.9536 0.206055C19.5899 0.206055 17.3788 1.08714 15.6543 2.70213C13.9298 1.08714 11.7187 0.206055 9.35507 0.206055C4.19666 0.206055 0 4.50266 0 9.78391C0 10.8273 0.304405 11.9969 0.910002 13.2879H0.683595C0.306046 13.2879 0 13.594 0 13.9715C0 14.3491 0.306046 14.6551 0.683595 14.6551H1.63803C2.91478 16.8167 4.93385 19.2747 7.68696 22.0122C11.418 25.7221 15.2013 28.6246 15.2391 28.6535C15.3616 28.7472 15.508 28.7941 15.6543 28.7941C15.8007 28.7941 15.947 28.7472 16.0695 28.6535C16.0984 28.6314 18.9919 26.4126 22.1985 23.3894C22.4733 23.1304 22.486 22.6977 22.227 22.423C21.968 22.1484 21.5354 22.1356 21.2606 22.3946C18.8151 24.7003 16.5574 26.5284 15.6544 27.2427C14.5813 26.3936 11.5938 23.9701 8.64119 21.033C6.27732 18.6815 4.4677 16.5386 3.24427 14.6551H9.36423C9.66918 14.6551 9.93722 14.4531 10.0213 14.1601L11.2157 9.99685L14.5232 20.5938C14.6123 20.8793 14.8767 21.0738 15.1757 21.0738C15.4748 21.0738 15.7392 20.8793 15.8282 20.5938L17.6599 14.7236H20.7118C21.0893 14.7236 21.3954 14.4175 21.3954 14.04C21.3954 13.6624 21.0893 13.3564 20.7118 13.3564H17.1571C16.8581 13.3564 16.5937 13.5508 16.5046 13.8363L15.1755 18.0955L11.8406 7.41046C11.7506 7.12219 11.4828 6.92641 11.1801 6.93058C10.8781 6.93407 10.6142 7.13532 10.5309 7.42564L8.849 13.288H2.43524C1.72861 11.9539 1.36719 10.7781 1.36719 9.78391C1.36719 5.25652 4.95053 1.57325 9.35507 1.57325C11.5688 1.57325 13.6275 2.48325 15.1519 4.1355C15.2814 4.27577 15.4635 4.35555 15.6543 4.35555C15.8452 4.35555 16.0274 4.27577 16.1568 4.1355C17.6811 2.48325 19.7398 1.57325 21.9536 1.57325C25.7617 1.57325 28.9993 4.31952 29.7688 8.07594C29.512 8.04238 29.2502 8.02481 28.9844 8.02481C25.6674 8.02481 22.9687 10.7234 22.9687 14.0404C22.9687 17.3575 25.6674 20.0561 28.9844 20.0561C32.3014 20.0561 35 17.3575 35 14.0404C35.0001 11.5128 33.4329 9.34456 31.2194 8.45554ZM28.9844 18.6889C26.4213 18.6889 24.336 16.6036 24.336 14.0404C24.336 11.4773 26.4213 9.392 28.9844 9.392C31.5476 9.392 33.6329 11.4773 33.6329 14.0404C33.6329 16.6036 31.5476 18.6889 28.9844 18.6889Z" fill="white"/>
</svg>
